<svg xmlns="http://www.w3.org/2000/svg" width="512" height="512" viewBox="0 0 64 64"><path d="M25 31h2v2h-2zM21 31h2v2h-2zM25 35h2v2h-2zM21 35h2v2h-2zM25 39h2v2h-2zM21 39h2v2h-2zM36.74 19.19l1.96-.38c-.13-.68-.3-1.37-.52-2.04l-1.9.61c.19.6.34 1.2.46 1.8zM35.14 11.2c-.45-.54-.94-1.06-1.45-1.54L32.3 11.1c.45.42.89.89 1.28 1.37zM35.59 15.64l1.81-.85c-.3-.64-.64-1.27-1.02-1.86L34.69 14c.33.52.64 1.08.9 1.64zM7 22H5c0 4.72 1.89 9.1 5.31 12.35l1.38-1.46A14.86 14.86 0 017 22z"/><path d="M59 25h-8a2 2 0 010-4h8a4 4 0 000-8H40.96a21 21 0 00-20.1-11.97A20.97 20.97 0 007.94 37.57 9.02 9.02 0 0110.9 43H10a2.98 2.98 0 00-2.22 5A2.98 2.98 0 0010 53h1.05a11.01 11.01 0 0018.61 6.88l1.4 1.4 2.5-1.48c.31.15.63.28.95.4l.71 2.8h7.56l.71-2.8c.32-.12.64-.25.96-.4l2.49 1.48 5.34-5.34-1.48-2.5c.15-.31.28-.63.4-.95l2.8-.71V49h5a4 4 0 004-4V29a4 4 0 00-4-4zM9.28 36.09a18.97 18.97 0 0111.7-33.06 18.87 18.87 0 0114.1 5.18 19 19 0 01-.37 27.88c-2 1.81-3.28 4.29-3.6 6.91H31V27.67L27.5 23H27V13h-4V9h-2V5h-2v4h-2v4h-4v30h-.08a10.97 10.97 0 00-3.64-6.91zM37 50c0-.77-.3-1.47-.78-2a2.98 2.98 0 00-2.11-4.99A7 7 0 1139 55c-1.86 0-3.61-.74-4.9-2.01A3 3 0 0037 50zM21 11v2h-2v-2zm4 4v8h-8v20h-2V15zm1.5 10l1.5 2h-9v-2zM19 29h10v14H19zm-9 16h24a1 1 0 010 2H10a1 1 0 010-2zm-1 5a1 1 0 011-1h24a1 1 0 010 2H10a1 1 0 01-1-1zm13 11a9.01 9.01 0 01-8.94-8h17.88c-.5 4.5-4.31 8-8.94 8zm30-10.78l-2.35.6-.17.53a11 11 0 01-.7 1.68l-.26.5 1.24 2.1-3.14 3.13-2.1-1.24-.49.25c-.56.3-1.12.53-1.68.7l-.53.18-.6 2.35h-4.44l-.6-2.35-.53-.17c-.56-.18-1.12-.42-1.68-.7l-.5-.26-2.1 1.24-.4-.4a10.93 10.93 0 001.75-3.93A9.01 9.01 0 1039 39c-1.89 0-3.7.61-5.2 1.68a9.21 9.21 0 012.25-3.1c.88-.8 1.69-1.66 2.42-2.58h2.75l.6 2.35.53.17c.56.18 1.13.42 1.69.7l.49.26 2.1-1.24 3.14 3.14-1.25 2.1.25.49a11 11 0 01.7 1.68l.18.53 2.35.6zM61 45a2 2 0 01-2 2h-5v-2.78l-2.8-.71c-.12-.32-.26-.64-.4-.96l1.48-2.49-5.34-5.34-2.5 1.48c-.31-.15-.63-.28-.95-.4l-.71-2.8h-2.92a20.96 20.96 0 001.93-18H59a2 2 0 010 4h-8a4 4 0 000 8h8a2 2 0 012 2z"/></svg>