<svg xmlns="http://www.w3.org/2000/svg" width="512" height="512" enable-background="new 0 0 64 64" viewBox="0 0 64 64"><path d="M56.62 35l-3-6H43.25L41 26.5 38.75 29H28.38l-3 6H21v-8h18V9H21V8c0-3.86-3.14-7-7-7S7 4.14 7 8v27H1v28h62V35zM61 37v16h-4V41h2.62l-2-4zM43 53h-4v-8h4zm-6-10v10h-4V39h16v14h-4V43zm-6-2v12h-4V41zm20 0h4v12h-4zm1.38-10l4 8H51v-1.38L45.04 31zm-4.63 6h-13.5L41 29.5zm-18.13-6h7.33L31 37.62V39h-5.38zm-5.24 6l-2 4H25v12h-8.38L21 44.24V37zM19 43h-4V16h4zm0-29H9v-2h10zm-6 2v27H9V16zm5.38 29l-3.83 7.66c-.2.42-.9.42-1.1 0L9.62 45zM37 11v14H21V11zM14 3c2.76 0 5 2.24 5 5v2H9V8c0-2.76 2.24-5 5-5zM7 37v7.24L11.38 53H3V37zM3 55h10v6H3zm12 6v-6h46v6zM23 13h12v2H23zM23 17h12v2H23zM23 21h12v2H23z"/></svg>