<svg xmlns="http://www.w3.org/2000/svg" width="512pt" height="512pt" viewBox="0 0 512 512"><path d="M391.67 105.38c2.63 0 5.2-1.07 7.07-2.93 1.86-1.86 2.93-4.44 2.93-7.07s-1.07-5.2-2.93-7.07c-1.86-1.85-4.44-2.92-7.07-2.92-2.64 0-5.2 1.07-7.08 2.93-1.87 1.87-2.93 4.45-2.93 7.08s1.06 5.2 2.92 7.07c1.86 1.86 4.43 2.93 7.07 2.93zm0 0M506.7 192.9l-82-43.72c-3.1-1.66-6.83-1.56-9.84.25-3.02 1.8-4.86 5.06-4.86 8.57v27.06l-67.3-35.88c-3.1-1.66-6.83-1.56-9.84.25-3.02 1.8-4.86 5.06-4.86 8.57v27.06l-67.3-35.88c-3.1-1.66-6.83-1.56-9.84.25-3.02 1.8-4.86 5.06-4.86 8.57v110H92V158c0-5.52-4.48-10-10-10H67.66v-14.16c0-2.4 1.95-4.34 4.34-4.34 5.52 0 10-4.48 10-10s-4.48-10-10-10c-13.42 0-24.34 10.92-24.34 24.34V148H30v-47.04c0-19.05 15.5-34.54 34.54-34.54H80.7c-.62 2.74-.95 5.55-.95 8.38 0 21.06 17.14 38.2 38.2 38.2h37.76c5.53 0 10-4.48 10-10s-4.47-10-10-10h-37.75c-10.03 0-18.2-8.17-18.2-18.2 0-5.07 2.1-10.03 5.75-13.62 3.52-3.44 8.06-5.27 12.82-5.2 2.64.05 5.18.66 7.54 1.8 2.52 1.2 5.43 1.3 8.03.3 2.6-1.04 4.64-3.12 5.65-5.72C146.98 33 165.9 20 186.65 20c20.93 0 39.57 13.13 47 32.15-3.05 1.68-5.94 3.67-8.56 5.96-4.4 3.83-8.06 8.35-10.87 13.43-2.68 4.83-.92 10.92 3.9 13.6 1.55.83 3.2 1.24 4.84 1.24 3.52 0 6.94-1.87 8.76-5.17 1.68-3.02 3.86-5.72 6.48-8 3.16-2.74 6.9-4.8 10.9-5.97 2.7-.8 5.5-1.22 8.36-1.22 16.2 0 29.37 13.2 29.37 29.38 0 5.52 4.47 10 10 10h54.55c5.52 0 10-4.48 10-10s-4.48-10-10-10H305.8C301.2 62.93 281.27 46 257.47 46c-1.56 0-3.1.1-4.65.23C242.8 18.93 216.37 0 186.66 0c-25.77 0-49.54 14.38-61.78 36.6-2.02-.37-4.08-.58-6.16-.62-9.95-.2-19.37 3.52-26.68 10.44H64.54C34.47 46.42 10 70.9 10 100.96V148c-5.52 0-10 4.48-10 10v344c0 5.52 4.48 10 10 10h492c5.52 0 10-4.48 10-10V201.73c0-3.7-2.04-7.1-5.3-8.83zM20 208h52v244H20zm52-20H20v-20h52zM20 472h52v20H20zm236 20H92V328h90c5.52 0 10-4.48 10-10s-4.48-10-10-10H92v-20h300v204zm236 0h-80V278c0-5.52-4.48-10-10-10H266v-93.34l67.3 35.9c3.1 1.64 6.83 1.55 9.84-.26 3.02-1.8 4.86-5.06 4.86-8.57v-27.07l67.3 35.9c3.1 1.64 6.83 1.55 9.84-.26 3.02-1.8 4.86-5.06 4.86-8.58v-27.06l62 33.06zm0 0M170 356h-48c-5.52 0-10 4.48-10 10v48c0 5.52 4.48 10 10 10h48c5.52 0 10-4.48 10-10v-48c0-5.52-4.48-10-10-10zm-10 48h-28v-28h28zm0 0M266 356h-48c-5.52 0-10 4.48-10 10v48c0 5.52 4.48 10 10 10h48c5.52 0 10-4.48 10-10v-48c0-5.52-4.48-10-10-10zm-10 48h-28v-28h28zm0 0M362 356h-48c-5.52 0-10 4.48-10 10v48c0 5.52 4.48 10 10 10h48c5.52 0 10-4.48 10-10v-48c0-5.52-4.48-10-10-10zm-10 48h-28v-28h28zm0 0M219.17 328c2.63 0 5.2-1.07 7.07-2.93 1.86-1.86 2.93-4.44 2.93-7.07s-1.07-5.2-2.93-7.07c-1.86-1.86-4.44-2.93-7.07-2.93-2.64 0-5.2 1.07-7.07 2.93s-2.93 4.44-2.93 7.07 1.06 5.2 2.93 7.07c1.86 1.86 4.44 2.93 7.07 2.93zm0 0"/></svg>