<svg xmlns="http://www.w3.org/2000/svg" width="512" height="512" enable-background="new 0 0 64 64" viewBox="0 0 64 64"><path d="M49.73 20.55l11.1-3.17C62.1 17 63 15.82 63 14.48V9c0-1.65-1.35-3-3-3h-3V4c0-1.65-1.35-3-3-3H36c-1.65 0-3 1.35-3 3v6c0 1.65 1.35 3 3 3h18c1.65 0 3-1.35 3-3V8h3c.55 0 1 .45 1 1v5.5c0 .44-.3.83-.73.95l-11.1 3.17C47.9 19 47 20.18 47 21.52V25h-1c-1.1 0-2 .9-2 2v8H19V14.82c1.16-.42 2-1.52 2-2.82v-1.8c0-.67.53-1.2 1.2-1.2.27 0 .55.1.76.3L31 16.16V12c0-6.07-4.93-11-11-11h-8.76c-1.15 0-2.17.64-2.7 1.66L8.4 3h-.76l-.17-.34C6.95 1.63 5.9 1 4.75 1H4C2.35 1 1 2.35 1 4v6c0 1.65 1.35 3 3 3h.76c1.15 0 2.18-.64 2.7-1.66L7.6 11H9v1c0 1.3.84 2.4 2 2.82V35H1v14h4v14h8v-4h38v4h8V49h4V35H52v-8c0-1.1-.9-2-2-2h-1v-3.5c0-.44.3-.83.73-.95zM55 10c0 .55-.45 1-1 1H36c-.55 0-1-.45-1-1V4c0-.55.45-1 1-1h18c.55 0 1 .45 1 1zm-5.4 27l10 10h-5.2l-10-10zm-28 0l10 10h-9.2l-10-10zm20.8 10l-10-10h9.2l10 10zm-2.8 0h-5.2l-10-10h5.2zm-20 0h-5.2l-10-10h5.2zM13 49h38v4H13zM6.38 9l-.72 1.45c-.17.34-.52.55-.9.55H4c-.55 0-1-.45-1-1V4c0-.55.45-1 1-1h.76c.38 0 .73.2.9.55L6.38 5h3.24l.72-1.45c.17-.34.5-.55.9-.55H20c4.9 0 8.9 3.94 9 8.82l-4.73-4.05C23.7 7.27 22.95 7 22.2 7 20.42 7 19 8.43 19 10.2V12c0 .55-.45 1-1 1h-6c-.55 0-1-.45-1-1V9zM13 15h4v20h-4zM3 38.4l8.6 8.6H3zM7 61V49h4v12zm6-4v-2h38v2zm44 4h-4V49h4zm4-15.4L52.4 37H61zM50 35h-4v-8h4z"/></svg>