<svg xmlns="http://www.w3.org/2000/svg" width="512" height="512" enable-background="new 0 0 64 64" viewBox="0 0 64 64"><path d="M58.93 17h-9.86l-2 28H45v-8h-2.38l-1.7-22h-9.85l-.8 10.34-.22.12c-1.44-.84-2.98-1.47-4.58-1.88l-.9-1.58h-7.15l-.9 1.58c-1.6.4-3.13 1.04-4.57 1.88L9.5 24.23 4.22 29.5l1.23 2.45c-.82 1.4-1.44 2.9-1.86 4.46L1 37.3v7.44l2.6.87c.42 1.55 1.04 3.05 1.86 4.45L4.23 52.5l5.26 5.27 2.45-1.23c.82.5 2.28 1.33 3.05 1.77V63h48V45h-2.07zm-1.86 2l.28 4h-6.7l.28-4zm-6.57 6h7l1.43 20h-9.86zM15 37v14.4c-3.7-2.14-6-6.06-6-10.4 0-6.62 5.38-12 12-12 3.3 0 6.44 1.37 8.7 3.77L29.4 37zm17.46-14h7.07l1.08 14h-9.2zm6.6-6l.32 4h-6.76l.3-4zM12.54 54.55l-.48-.3-2.17 1.1-3.22-3.23 1.08-2.17-.3-.48c-.94-1.5-1.62-3.15-2.02-4.88l-.13-.56-2.3-.76v-4.56l2.3-.77.12-.54c.4-1.72 1.08-3.36 2.03-4.87l.3-.48-1.1-2.17 3.23-3.22 2.17 1.08.48-.3c1.5-.94 3.15-1.62 4.88-2.02l.44-.1.74-1.32h4.84l.74 1.32.43.1c1.72.4 3.36 1.08 4.87 2.03l.48.3.15-.08-.2 2.55C27.4 28.16 24.27 27 21 27c-7.72 0-14 6.28-14 14 0 5.44 3.12 10.33 8 12.64V56c-.98-.56-2.14-1.23-2.47-1.45zM27 61H17V39h26v6H31.6L27 49.6zm10 0h-4v-6h4zm10 0h-4v-6h4zm10 0h-4v-6h4zm2 0v-8h-8v8h-2v-8h-8v8h-2v-8h-8v8h-2V51h32v10zm2-12H30.4l2-2H61zM51 9h9c.55 0 1 .45 1 1s-.45 1-1 1h-2c-1.65 0-3 1.35-3 3v1h2v-1c0-.55.45-1 1-1h2c1.65 0 3-1.35 3-3s-1.35-3-3-3h-9zM48 13h2c.55 0 1 .45 1 1v1h2v-1c0-1.65-1.35-3-3-3h-2c-1.65 0-3-1.35-3-3s1.35-3 3-3h7V3h-7c-2.76 0-5 2.24-5 5s2.24 5 5 5zM57 3h2v2h-2zM9 7h7c.55 0 1 .45 1 1 0 1.65 1.35 3 3 3h12c.55 0 1 .45 1 1v1h2v-1c0-1.65-1.35-3-3-3H20c-.55 0-1-.45-1-1 0-1.65-1.35-3-3-3H9c-.55 0-1-.45-1-1s.45-1 1-1h11V1H9C7.35 1 6 2.35 6 4s1.35 3 3 3zM29 7h3c2.76 0 5 2.24 5 5v1h2v-1c0-3.86-3.14-7-7-7h-3c-.55 0-1-.45-1-1s.45-1 1-1h11V1H29c-1.65 0-3 1.35-3 3s1.35 3 3 3zM35 41h2v2h-2zM39 41h2v2h-2zM31 41h2v2h-2zM27 41h2v2h-2zM19 41h2v2h-2zM23 41h2v2h-2zM23 45h2v2h-2zM19 45h2v2h-2zM23 49h2v2h-2zM19 49h2v2h-2zM19 53h2v2h-2zM23 53h2v2h-2zM23 57h2v2h-2zM19 57h2v2h-2zM35 25h2v2h-2zM35 33h2v2h-2zM35 29h2v2h-2zM53 27h2v2h-2zM53 35h2v2h-2zM53 31h2v2h-2zM53 39h2v2h-2z"/></svg>